<svg id="Warstwa_1" xmlns="http://www.w3.org/2000/svg" viewBox="0 0 934 474">
  <style>
    .st0{fill:#848484;} .st1{fill:#FFFFFF;} .st2{fill:#0D72B9;} .st3{fill:#014560;} .st4{fill:url(#SVGID_1_);} .st5{fill:none;}
  </style>
  <path class="st2" d="M212.4 412.1c-.8-2-1.6-4-2.5-6-.8-2-1.7-4-2.5-6.1h-24.8c-.8 2.1-1.6 4.1-2.4 6.1l-2.4 6h-11.1c2.2-5.5 4.3-10.5 6.3-15.2 2-4.6 3.9-9 5.8-13.2 1.9-4.1 3.8-8.1 5.6-11.8l5.7-11.1h10.2c2 3.6 3.9 7.3 5.8 11.1 1.9 3.7 3.7 7.7 5.6 11.8 1.9 4.1 3.8 8.5 5.8 13.2 2 4.6 4.1 9.7 6.3 15.2h-11.4zm-17.3-41.3c-1.3 2.6-2.8 5.8-4.4 9.5-1.7 3.7-3.4 7.8-5.2 12.2h19.3c-1.8-4.4-3.6-8.5-5.2-12.3-1.8-3.7-3.2-6.9-4.5-9.4zm89.5 42.5c-4.4 0-8.3-.6-11.8-1.8-3.5-1.2-6.5-2.9-8.9-5.2-2.4-2.3-4.3-5.1-5.6-8.4-1.3-3.3-1.9-7.1-1.9-11.4 0-4.3.7-8.1 2.2-11.4 1.5-3.3 3.5-6.1 6.1-8.4 2.6-2.3 5.6-4 9.1-5.2 3.5-1.2 7.2-1.8 11.2-1.8 2.4 0 4.6.2 6.6.5s3.7.7 5.2 1.1c1.5.4 2.7.8 3.6 1.3 1 .4 1.6.8 2 1l-3.1 7.6c-1.4-.7-3.3-1.4-5.8-2.1-2.5-.7-5.2-1-8.2-1-2.5 0-4.9.4-7.1 1.1-2.2.8-4.1 1.9-5.7 3.4-1.6 1.5-2.9 3.5-3.8 5.8-.9 2.3-1.4 5-1.4 8.1 0 2.7.4 5.2 1.1 7.5.7 2.3 1.8 4.2 3.3 5.9 1.5 1.7 3.3 2.9 5.6 3.8 2.3.9 5 1.4 8.1 1.4 3.8 0 6.9-.3 9.2-1 2.4-.7 4.2-1.3 5.5-1.9l2.9 7.6c-.7.4-1.6.8-2.7 1.2-1.2.4-2.5.8-4.1 1.1-1.6.4-3.4.7-5.3.9-1.9.1-4 .3-6.3.3zm109.6-26.8c0 4.4-.7 8.3-2.2 11.6-1.5 3.4-3.5 6.2-6.1 8.4-2.6 2.2-5.6 3.9-9 5.1-3.4 1.1-7.1 1.7-11 1.7-3.9 0-7.6-.6-11-1.7-3.5-1.1-6.5-2.8-9-5.1-2.6-2.2-4.6-5-6.1-8.4-1.5-3.4-2.3-7.2-2.3-11.6 0-4.4.8-8.2 2.3-11.6 1.5-3.3 3.6-6.1 6.2-8.4 2.6-2.3 5.7-4 9.1-5.1 3.4-1.1 7.1-1.7 10.9-1.7 3.8 0 7.5.6 10.9 1.7 3.4 1.1 6.4 2.8 9 5.1 2.6 2.3 4.6 5.1 6.1 8.4 1.5 3.3 2.2 7.2 2.2 11.6zm-45.7 0c0 2.8.4 5.4 1.2 7.7.8 2.3 1.9 4.2 3.4 5.8 1.5 1.6 3.3 2.8 5.5 3.7 2.1.9 4.6 1.3 7.3 1.3 2.6 0 5-.4 7.2-1.3 2.1-.9 4-2.1 5.5-3.7s2.6-3.5 3.4-5.8c.8-2.3 1.2-4.8 1.2-7.7 0-2.8-.4-5.4-1.2-7.7-.8-2.3-1.9-4.2-3.4-5.8-1.5-1.6-3.3-2.8-5.5-3.7-2.1-.9-4.5-1.3-7.2-1.3s-5.1.4-7.3 1.3c-2.1.9-4 2.1-5.5 3.8-1.5 1.6-2.6 3.6-3.4 5.8-.8 2.2-1.2 4.8-1.2 7.6zm108.8 26.8c-4 0-7.4-.5-10.3-1.5-2.9-1-5.3-2.4-7.1-4.3-1.9-1.8-3.3-4-4.2-6.4-.9-2.5-1.4-5.2-1.4-8.1v-32H445v31c0 2.3.3 4.3.9 6 .6 1.7 1.4 3 2.5 4s2.4 1.8 3.9 2.3c1.5.5 3.2.7 5 .7s3.6-.2 5.1-.7c1.5-.5 2.8-1.3 3.9-2.3 1.1-1 1.9-2.4 2.5-4 .6-1.7.9-3.6.9-6v-31.1h10.7v32c0 3-.5 5.7-1.4 8.1-.9 2.5-2.3 4.6-4.2 6.4-1.9 1.8-4.3 3.2-7.2 4.3-2.9 1-6.3 1.6-10.3 1.6zm79.8-8.1c3.8 0 6.6-.6 8.4-1.7 1.7-1.1 2.6-2.7 2.6-4.8 0-1.2-.3-2.3-.9-3.2-.6-.9-1.4-1.7-2.5-2.4s-2.4-1.4-4-2c-1.6-.6-3.4-1.2-5.4-1.8-2-.6-4-1.3-5.9-2.1-1.9-.8-3.6-1.7-5-2.8-1.4-1.1-2.6-2.5-3.5-4.1-.9-1.6-1.3-3.5-1.3-5.7 0-4.6 1.8-8.3 5.5-10.9 3.7-2.6 8.7-4 15-4 3.7 0 6.9.4 9.8 1.1 2.8.7 5.1 1.5 6.7 2.3l-3.3 7.5c-1.9-.9-4-1.7-6.3-2.1-2.3-.5-4.6-.7-7.1-.7-2.9 0-5.1.5-6.7 1.6-1.6 1-2.4 2.5-2.4 4.4 0 1.1.3 2.1.8 2.9.5.8 1.3 1.5 2.3 2.2 1 .6 2.1 1.2 3.5 1.8 1.3.5 2.8 1.1 4.4 1.6 2.8.9 5.2 1.8 7.4 2.7 2.2.9 4 2 5.5 3.3 1.5 1.3 2.6 2.7 3.4 4.4.8 1.7 1.2 3.8 1.2 6.2 0 4.6-1.9 8.2-5.6 10.8-3.8 2.5-9.2 3.8-16.5 3.8-2.4 0-4.6-.1-6.6-.4-2-.3-3.8-.6-5.3-1-1.6-.4-2.9-.8-4-1.2-1.1-.4-2-.8-2.7-1.1l3.1-7.6c1.5.7 3.6 1.5 6.2 2.2 2.4.4 5.5.8 9.2.8zm101.1-44.3v8.1h-18v43.2h-10.7V369h-18v-8.1h46.7zm36.8 0h10.7v51.2H675v-51.2zm79.5 52.4c-4.4 0-8.3-.6-11.8-1.8-3.5-1.2-6.5-2.9-8.9-5.2-2.4-2.3-4.3-5.1-5.6-8.4-1.3-3.3-1.9-7.1-1.9-11.4 0-4.3.7-8.1 2.2-11.4 1.5-3.3 3.5-6.1 6.1-8.4 2.6-2.3 5.6-4 9.1-5.2 3.5-1.2 7.2-1.8 11.2-1.8 2.4 0 4.6.2 6.6.5s3.7.7 5.2 1.1c1.5.4 2.7.8 3.6 1.3 1 .4 1.6.8 2 1l-3.1 7.6c-1.4-.7-3.3-1.4-5.8-2.1-2.5-.7-5.2-1-8.2-1-2.5 0-4.9.4-7.1 1.1-2.2.8-4.1 1.9-5.7 3.4-1.6 1.5-2.9 3.5-3.8 5.8-.9 2.3-1.4 5-1.4 8.1 0 2.7.4 5.2 1.1 7.5.7 2.3 1.8 4.2 3.3 5.9 1.5 1.7 3.3 2.9 5.6 3.8 2.3.9 5 1.4 8.1 1.4 3.8 0 6.9-.3 9.2-1 2.4-.7 4.2-1.3 5.5-1.9l2.9 7.6c-.7.4-1.6.8-2.7 1.2-1.2.4-2.5.8-4.1 1.1-1.6.4-3.4.7-5.3.9-1.9.1-4 .3-6.3.3zm71.7-8.1c3.8 0 6.6-.6 8.4-1.7 1.7-1.1 2.6-2.7 2.6-4.8 0-1.2-.3-2.3-.9-3.2-.6-.9-1.4-1.7-2.5-2.4s-2.4-1.4-4-2c-1.6-.6-3.4-1.2-5.4-1.8-2-.6-4-1.3-5.9-2.1-1.9-.8-3.6-1.7-5-2.8-1.4-1.1-2.6-2.5-3.5-4.1-.9-1.6-1.3-3.5-1.3-5.7 0-4.6 1.8-8.3 5.5-10.9 3.7-2.6 8.7-4 15-4 3.7 0 6.9.4 9.8 1.1 2.8.7 5.1 1.5 6.7 2.3l-3.3 7.5c-1.9-.9-4-1.7-6.3-2.1-2.3-.5-4.6-.7-7.1-.7-2.9 0-5.1.5-6.7 1.6-1.6 1-2.4 2.5-2.4 4.4 0 1.1.3 2.1.8 2.9.5.8 1.3 1.5 2.3 2.2 1 .6 2.1 1.2 3.5 1.8 1.3.5 2.8 1.1 4.4 1.6 2.8.9 5.2 1.8 7.4 2.7 2.2.9 4 2 5.5 3.3 1.5 1.3 2.6 2.7 3.4 4.4.8 1.7 1.2 3.8 1.2 6.2 0 4.6-1.9 8.2-5.6 10.8-3.8 2.5-9.2 3.8-16.5 3.8-2.4 0-4.6-.1-6.6-.4-2-.3-3.8-.6-5.3-1-1.6-.4-2.9-.8-4-1.2-1.1-.4-2-.8-2.7-1.1l3.1-7.6c1.5.7 3.6 1.5 6.2 2.2 2.4.4 5.5.8 9.2.8z"/>
  <path class="st3" d="M404.5 241.6c0-12.9 1.9-24.2 5.6-33.8 3.7-9.6 8.6-17.7 14.6-24.1 6-6.5 12.9-11.3 20.6-14.4 7.7-3.1 15.7-4.7 23.9-4.7 18.1 0 32.5 5.9 43.3 17.7 10.8 11.8 16.1 30 16.1 54.6 0 1.5 0 3-.1 4.6-.1 1.5-.2 3-.4 4.3H424.2c.6 18.1 5 32 13.4 41.7 8.4 9.7 21.7 14.6 40 14.6 10.1 0 18.1-1 24-2.9 5.9-1.9 10.2-3.5 12.9-4.9l3.4 16c-2.7 1.5-7.7 3.3-15 5.4-7.3 2.1-16 3.1-25.9 3.1-13 0-24-1.9-33.1-5.7-9.1-3.8-16.7-9.1-22.6-16-5.9-6.9-10.2-15-12.9-24.4-2.6-9.5-3.9-19.9-3.9-31.1zm104.8-11.7c-.4-15.4-4-27.4-10.9-36-6.9-8.6-16.6-12.9-29.1-12.9-6.7 0-12.6 1.3-17.9 4-5.2 2.7-9.8 6.2-13.7 10.7-3.9 4.5-7 9.7-9.1 15.6-2.2 5.9-3.5 12.1-3.9 18.6h84.6zm80.9 88.2c-6.3-.2-11.8-1-16.4-2.4-4.7-1.4-8.6-3.6-11.7-6.6-3.1-3-5.5-6.8-7.1-11.4-1.6-4.7-2.4-10.5-2.4-17.6V97.3l18.6-3.4v185.7c0 4.6.4 8.2 1.3 11 .9 2.8 2.1 5 3.9 6.6 1.7 1.6 4 2.8 6.7 3.6 2.8.8 6 1.4 9.9 2l-2.8 15.3zm15.1-76.5c0-12.9 1.9-24.2 5.6-33.8 3.7-9.6 8.6-17.7 14.6-24.1 6-6.5 12.9-11.3 20.6-14.4 7.7-3.1 15.7-4.7 23.9-4.7 18.1 0 32.5 5.9 43.3 17.7 10.8 11.8 16.1 30 16.1 54.6 0 1.5 0 3-.1 4.6-.1 1.5-.2 3-.4 4.3H625c.6 18.1 5 32 13.4 41.7 8.4 9.7 21.7 14.6 40 14.6 10.1 0 18.1-1 24-2.9 5.9-1.9 10.2-3.5 12.9-4.9l3.4 16c-2.7 1.5-7.7 3.3-15 5.4-7.3 2.1-16 3.1-25.9 3.1-13 0-24-1.9-33.1-5.7-9.1-3.8-16.7-9.1-22.6-16-5.9-6.9-10.2-15-12.9-24.4-2.6-9.5-3.9-19.9-3.9-31.1zm104.8-11.7c-.4-15.4-4-27.4-10.9-36s-16.5-12.9-29-12.9c-6.7 0-12.6 1.3-17.9 4-5.2 2.7-9.8 6.2-13.7 10.7-3.9 4.5-7 9.7-9.1 15.6-2.2 5.9-3.5 12.1-3.9 18.6h84.5zm79.5 72.5c10.7 0 19.5-1.8 26.4-5.3 6.9-3.5 10.4-9.5 10.4-17.9 0-4-.6-7.4-1.9-10.3-1.2-2.9-3.3-5.4-6.1-7.7-2.9-2.3-6.6-4.5-11.3-6.6-4.7-2.1-10.4-4.6-17.3-7.4-5.5-2.3-10.8-4.6-15.7-7-5-2.4-9.3-5.1-13.1-8.3-3.8-3.1-6.9-6.9-9.1-11.3-2.3-4.4-3.4-9.7-3.4-16 0-12 4.5-21.7 13.6-29.1 9-7.4 21.5-11.1 37.3-11.1 10.1 0 18.4.9 25 2.6s11.2 3.2 13.9 4.6l-4.3 16.6c-2.3-1.1-6.1-2.7-11.6-4.6-5.4-1.9-13.4-2.9-23.9-2.9-4.2 0-8.1.4-11.9 1.3-3.7.9-7 2.2-9.9 4-2.9 1.8-5.1 4.1-6.9 6.9-1.7 2.8-2.6 6.2-2.6 10.2 0 4 .8 7.4 2.3 10.3 1.5 2.9 3.8 5.4 6.7 7.6 3 2.2 6.6 4.2 10.9 6.1 4.3 1.9 9.2 4 14.7 6.3 5.7 2.3 11.2 4.6 16.4 7 5.2 2.4 9.9 5.2 13.9 8.6 4 3.3 7.2 7.3 9.7 12 2.5 4.7 3.7 10.5 3.7 17.6 0 13.3-5 23.4-15 30.3-10 6.9-23.7 10.3-41 10.3-13 0-22.9-1.1-29.7-3.3-6.9-2.2-11.4-3.9-13.7-5L751 294c.6.4 1.8 1 3.7 1.9 1.9.9 4.5 1.8 7.7 2.9 3.2 1 7.1 2 11.6 2.7 4.5.5 9.6.9 15.6.9z"/>
  <linearGradient id="SVGID_1_" gradientUnits="userSpaceOnUse" x1="67.073" y1="184.567" x2="385.239" y2="184.567">
    <stop offset=".538" stop-color="#0D72B9"/>
    <stop offset=".608" stop-color="#44336C"/>
    <stop offset=".704" stop-color="#B11F24"/>
  </linearGradient>
  <path class="st4" d="M372.9 164.4c-3.3 0-6.1 2.2-6.9 5.4L340.7 291c-1.2 5-4.3 14.4-7.8 14.5-4-.1-7.4-9.9-8.4-13.5 0 0-34.1-155.6-34.2-155.9-3.4-19.6-20.2-23.9-27.1-23.7-6 .1-22.1 2.1-27.6 26.5l-5.5 24.5-26 128.8c-2.3 10.5-5.2 14.2-7.9 14-3 0-5.8-5.9-7.7-13.5l-50-219.8c-3.8-17.4-16.9-24-27.5-23.7-13.5 0-24.1 10.6-26.7 24.6l-16.9 76.5c-.9 3.9 1.6 7.7 5.6 8.5l4.8 1c3.8.8 7.6-1.7 8.4-5.5l17.3-76.2c1-3.7 3-15.9 8-16.2 4.5-.3 7.3 9.1 8.9 15.4 0 0 49.3 217.9 50.8 222.9 3.9 13.1 15.5 19.7 25.2 19.7 10.7 0 23.4-6.2 26.9-21.5 1-4.7 32.4-156.6 32.4-156.9 1.6-7.1 3.9-15.2 7.6-15.2 3.6 0 6.7 6.3 9 13.7.2.5.3 1 .4 1.5 2.8 12.1 33.5 156.2 33.5 156.2s.6 1.9.7 2.3c3.8 13.3 16 19.7 26 19.7 13.6-.2 23.3-9.4 26.7-24.1L385 173.3c1.2-4.5-2.2-8.9-6.9-8.9h-5.2z"/>
  <path class="st2" d="M156.3 337.6h701.4v2.6H156.3z"/>
  <path class="st5" d="M135.3 122.8c.5-.8 1.6-2.1 3-3.8-1.1.6-2.1 2-3 3.8z"/>
</svg>
