<?xml version="1.0" encoding="utf-8"?>
<!-- Generator: Adobe Illustrator 20.1.0, SVG Export Plug-In . SVG Version: 6.00 Build 0)  -->
<svg version="1.1" id="Warstwa_1" xmlns="http://www.w3.org/2000/svg" xmlns:xlink="http://www.w3.org/1999/xlink" x="0px" y="0px"
	 viewBox="0 0 934 474" style="enable-background:new 0 0 934 474;" xml:space="preserve">
<style type="text/css">
	.st0{fill:#848484;}
	.st1{fill:#FFFFFF;}
	.st2{fill:#0D72B9;}
	.st3{fill:#014560;}
	.st4{fill:url(#SVGID_1_);}
	.st5{fill:none;}
</style>
<g>
	<g>
		<path class="st2" d="M212.4,412.1c-0.8-2-1.6-4-2.5-6c-0.8-2-1.7-4-2.5-6.1h-24.8c-0.8,2.1-1.6,4.1-2.4,6.1c-0.8,2-1.6,4-2.4,6
			h-11.1c2.2-5.5,4.3-10.5,6.3-15.2c2-4.6,3.9-9,5.8-13.2c1.9-4.1,3.8-8.1,5.6-11.8c1.9-3.7,3.8-7.4,5.7-11.1h10.2
			c2,3.6,3.9,7.3,5.8,11.1c1.9,3.7,3.7,7.7,5.6,11.8c1.9,4.1,3.8,8.5,5.8,13.2c2,4.6,4.1,9.7,6.3,15.2H212.4z M195.1,370.8
			c-1.3,2.6-2.8,5.8-4.4,9.5c-1.7,3.7-3.4,7.8-5.2,12.2h19.3c-1.8-4.4-3.6-8.5-5.2-12.3C197.8,376.5,196.4,373.3,195.1,370.8z"/>
		<path class="st2" d="M284.6,413.3c-4.4,0-8.3-0.6-11.8-1.8c-3.5-1.2-6.5-2.9-8.9-5.2c-2.4-2.3-4.3-5.1-5.6-8.4
			c-1.3-3.3-1.9-7.1-1.9-11.4c0-4.3,0.7-8.1,2.2-11.4c1.5-3.3,3.5-6.1,6.1-8.4c2.6-2.3,5.6-4,9.1-5.2c3.5-1.2,7.2-1.8,11.2-1.8
			c2.4,0,4.6,0.2,6.6,0.5c2,0.3,3.7,0.7,5.2,1.1c1.5,0.4,2.7,0.8,3.6,1.3c1,0.4,1.6,0.8,2,1l-3.1,7.6c-1.4-0.7-3.3-1.4-5.8-2.1
			c-2.5-0.7-5.2-1-8.2-1c-2.5,0-4.9,0.4-7.1,1.1c-2.2,0.8-4.1,1.9-5.7,3.4c-1.6,1.5-2.9,3.5-3.8,5.8c-0.9,2.3-1.4,5-1.4,8.1
			c0,2.7,0.4,5.2,1.1,7.5c0.7,2.3,1.8,4.2,3.3,5.9c1.5,1.7,3.3,2.9,5.6,3.8c2.3,0.9,5,1.4,8.1,1.4c3.8,0,6.9-0.3,9.2-1
			c2.4-0.7,4.2-1.3,5.5-1.9l2.9,7.6c-0.7,0.4-1.6,0.8-2.7,1.2c-1.2,0.4-2.5,0.8-4.1,1.1c-1.6,0.4-3.4,0.7-5.3,0.9
			C289,413.1,286.9,413.3,284.6,413.3z"/>
		<path class="st2" d="M394.2,386.5c0,4.4-0.7,8.3-2.2,11.6c-1.5,3.4-3.5,6.2-6.1,8.4c-2.6,2.2-5.6,3.9-9,5.1
			c-3.4,1.1-7.1,1.7-11,1.7c-3.9,0-7.6-0.6-11-1.7c-3.5-1.1-6.5-2.8-9-5.1c-2.6-2.2-4.6-5-6.1-8.4c-1.5-3.4-2.3-7.2-2.3-11.6
			c0-4.4,0.8-8.2,2.3-11.6c1.5-3.3,3.6-6.1,6.2-8.4c2.6-2.3,5.7-4,9.1-5.1c3.4-1.1,7.1-1.7,10.9-1.7c3.8,0,7.5,0.6,10.9,1.7
			c3.4,1.1,6.4,2.8,9,5.1c2.6,2.3,4.6,5.1,6.1,8.4C393.5,378.2,394.2,382.1,394.2,386.5z M348.5,386.5c0,2.8,0.4,5.4,1.2,7.7
			c0.8,2.3,1.9,4.2,3.4,5.8c1.5,1.6,3.3,2.8,5.5,3.7c2.1,0.9,4.6,1.3,7.3,1.3c2.6,0,5-0.4,7.2-1.3c2.1-0.9,4-2.1,5.5-3.7
			c1.5-1.6,2.6-3.5,3.4-5.8c0.8-2.3,1.2-4.8,1.2-7.7c0-2.8-0.4-5.4-1.2-7.7c-0.8-2.3-1.9-4.2-3.4-5.8c-1.5-1.6-3.3-2.8-5.5-3.7
			c-2.1-0.9-4.5-1.3-7.2-1.3c-2.7,0-5.1,0.4-7.3,1.3c-2.1,0.9-4,2.1-5.5,3.8c-1.5,1.6-2.6,3.6-3.4,5.8
			C348.9,381.1,348.5,383.7,348.5,386.5z"/>
		<path class="st2" d="M457.3,413.3c-4,0-7.4-0.5-10.3-1.5c-2.9-1-5.3-2.4-7.1-4.3c-1.9-1.8-3.3-4-4.2-6.4c-0.9-2.5-1.4-5.2-1.4-8.1
			v-32H445V392c0,2.3,0.3,4.3,0.9,6c0.6,1.7,1.4,3,2.5,4c1.1,1,2.4,1.8,3.9,2.3c1.5,0.5,3.2,0.7,5,0.7s3.6-0.2,5.1-0.7
			c1.5-0.5,2.8-1.3,3.9-2.3c1.1-1,1.9-2.4,2.5-4c0.6-1.7,0.9-3.6,0.9-6v-31.1h10.7v32c0,3-0.5,5.7-1.4,8.1c-0.9,2.5-2.3,4.6-4.2,6.4
			c-1.9,1.8-4.3,3.2-7.2,4.3C464.7,412.7,461.3,413.3,457.3,413.3z"/>
		<path class="st2" d="M537.1,405.2c3.8,0,6.6-0.6,8.4-1.7c1.7-1.1,2.6-2.7,2.6-4.8c0-1.2-0.3-2.3-0.9-3.2c-0.6-0.9-1.4-1.7-2.5-2.4
			c-1.1-0.7-2.4-1.4-4-2c-1.6-0.6-3.4-1.2-5.4-1.8c-2-0.6-4-1.3-5.9-2.1c-1.9-0.8-3.6-1.7-5-2.8c-1.4-1.1-2.6-2.5-3.5-4.1
			c-0.9-1.6-1.3-3.5-1.3-5.7c0-4.6,1.8-8.3,5.5-10.9c3.7-2.6,8.7-4,15-4c3.7,0,6.9,0.4,9.8,1.1c2.8,0.7,5.1,1.5,6.7,2.3l-3.3,7.5
			c-1.9-0.9-4-1.7-6.3-2.1c-2.3-0.5-4.6-0.7-7.1-0.7c-2.9,0-5.1,0.5-6.7,1.6c-1.6,1-2.4,2.5-2.4,4.4c0,1.1,0.3,2.1,0.8,2.9
			c0.5,0.8,1.3,1.5,2.3,2.2c1,0.6,2.1,1.2,3.5,1.8c1.3,0.5,2.8,1.1,4.4,1.6c2.8,0.9,5.2,1.8,7.4,2.7c2.2,0.9,4,2,5.5,3.3
			c1.5,1.3,2.6,2.7,3.4,4.4c0.8,1.7,1.2,3.8,1.2,6.2c0,4.6-1.9,8.2-5.6,10.8c-3.8,2.5-9.2,3.8-16.5,3.8c-2.4,0-4.6-0.1-6.6-0.4
			c-2-0.3-3.8-0.6-5.3-1c-1.6-0.4-2.9-0.8-4-1.2c-1.1-0.4-2-0.8-2.7-1.1l3.1-7.6c1.5,0.7,3.6,1.5,6.2,2.2
			C530.3,404.8,533.4,405.2,537.1,405.2z"/>
		<path class="st2" d="M638.2,360.9v8.1h-18v43.2h-10.7V369h-18v-8.1H638.2z"/>
		<path class="st2" d="M675,360.9h10.7v51.2H675V360.9z"/>
		<path class="st2" d="M754.5,413.3c-4.4,0-8.3-0.6-11.8-1.8c-3.5-1.2-6.5-2.9-8.9-5.2c-2.4-2.3-4.3-5.1-5.6-8.4
			c-1.3-3.3-1.9-7.1-1.9-11.4c0-4.3,0.7-8.1,2.2-11.4c1.5-3.3,3.5-6.1,6.1-8.4c2.6-2.3,5.6-4,9.1-5.2c3.5-1.2,7.2-1.8,11.2-1.8
			c2.4,0,4.6,0.2,6.6,0.5c2,0.3,3.7,0.7,5.2,1.1c1.5,0.4,2.7,0.8,3.6,1.3c1,0.4,1.6,0.8,2,1l-3.1,7.6c-1.4-0.7-3.3-1.4-5.8-2.1
			c-2.5-0.7-5.2-1-8.2-1c-2.5,0-4.9,0.4-7.1,1.1c-2.2,0.8-4.1,1.9-5.7,3.4c-1.6,1.5-2.9,3.5-3.8,5.8c-0.9,2.3-1.4,5-1.4,8.1
			c0,2.7,0.4,5.2,1.1,7.5c0.7,2.3,1.8,4.2,3.3,5.9c1.5,1.7,3.3,2.9,5.6,3.8c2.3,0.9,5,1.4,8.1,1.4c3.8,0,6.9-0.3,9.2-1
			c2.4-0.7,4.2-1.3,5.5-1.9l2.9,7.6c-0.7,0.4-1.6,0.8-2.7,1.2c-1.2,0.4-2.5,0.8-4.1,1.1c-1.6,0.4-3.4,0.7-5.3,0.9
			C758.9,413.1,756.8,413.3,754.5,413.3z"/>
		<path class="st2" d="M826.2,405.2c3.8,0,6.6-0.6,8.4-1.7c1.7-1.1,2.6-2.7,2.6-4.8c0-1.2-0.3-2.3-0.9-3.2c-0.6-0.9-1.4-1.7-2.5-2.4
			c-1.1-0.7-2.4-1.4-4-2c-1.6-0.6-3.4-1.2-5.4-1.8c-2-0.6-4-1.3-5.9-2.1c-1.9-0.8-3.6-1.7-5-2.8c-1.4-1.1-2.6-2.5-3.5-4.1
			c-0.9-1.6-1.3-3.5-1.3-5.7c0-4.6,1.8-8.3,5.5-10.9c3.7-2.6,8.7-4,15-4c3.7,0,6.9,0.4,9.8,1.1c2.8,0.7,5.1,1.5,6.7,2.3l-3.3,7.5
			c-1.9-0.9-4-1.7-6.3-2.1c-2.3-0.5-4.6-0.7-7.1-0.7c-2.9,0-5.1,0.5-6.7,1.6c-1.6,1-2.4,2.5-2.4,4.4c0,1.1,0.3,2.1,0.8,2.9
			c0.5,0.8,1.3,1.5,2.3,2.2c1,0.6,2.1,1.2,3.5,1.8c1.3,0.5,2.8,1.1,4.4,1.6c2.8,0.9,5.2,1.8,7.4,2.7c2.2,0.9,4,2,5.5,3.3
			c1.5,1.3,2.6,2.7,3.4,4.4c0.8,1.7,1.2,3.8,1.2,6.2c0,4.6-1.9,8.2-5.6,10.8c-3.8,2.5-9.2,3.8-16.5,3.8c-2.4,0-4.6-0.1-6.6-0.4
			c-2-0.3-3.8-0.6-5.3-1c-1.6-0.4-2.9-0.8-4-1.2c-1.1-0.4-2-0.8-2.7-1.1l3.1-7.6c1.5,0.7,3.6,1.5,6.2,2.2
			C819.4,404.8,822.5,405.2,826.2,405.2z"/>
	</g>
	<g>
		<path class="st3" d="M404.5,241.6c0-12.9,1.9-24.2,5.6-33.8c3.7-9.6,8.6-17.7,14.6-24.1c6-6.5,12.9-11.3,20.6-14.4
			c7.7-3.1,15.7-4.7,23.9-4.7c18.1,0,32.5,5.9,43.3,17.7c10.8,11.8,16.1,30,16.1,54.6c0,1.5,0,3-0.1,4.6c-0.1,1.5-0.2,3-0.4,4.3
			H424.2c0.6,18.1,5,32,13.4,41.7c8.4,9.7,21.7,14.6,40,14.6c10.1,0,18.1-1,24-2.9c5.9-1.9,10.2-3.5,12.9-4.9l3.4,16
			c-2.7,1.5-7.7,3.3-15,5.4c-7.3,2.1-16,3.1-25.9,3.1c-13,0-24-1.9-33.1-5.7c-9.1-3.8-16.7-9.1-22.6-16c-5.9-6.9-10.2-15-12.9-24.4
			C405.8,263.2,404.5,252.8,404.5,241.6z M509.3,229.9c-0.4-15.4-4-27.4-10.9-36c-6.9-8.6-16.6-12.9-29.1-12.9
			c-6.7,0-12.6,1.3-17.9,4c-5.2,2.7-9.8,6.2-13.7,10.7c-3.9,4.5-7,9.7-9.1,15.6c-2.2,5.9-3.5,12.1-3.9,18.6H509.3z"/>
		<path class="st3" d="M590.2,318.1c-6.3-0.2-11.8-1-16.4-2.4c-4.7-1.4-8.6-3.6-11.7-6.6c-3.1-3-5.5-6.8-7.1-11.4
			c-1.6-4.7-2.4-10.5-2.4-17.6V97.3l18.6-3.4v185.7c0,4.6,0.4,8.2,1.3,11c0.9,2.8,2.1,5,3.9,6.6c1.7,1.6,4,2.8,6.7,3.6
			c2.8,0.8,6,1.4,9.9,2L590.2,318.1z"/>
		<path class="st3" d="M605.3,241.6c0-12.9,1.9-24.2,5.6-33.8c3.7-9.6,8.6-17.7,14.6-24.1c6-6.5,12.9-11.3,20.6-14.4
			c7.7-3.1,15.7-4.7,23.9-4.7c18.1,0,32.5,5.9,43.3,17.7c10.8,11.8,16.1,30,16.1,54.6c0,1.5,0,3-0.1,4.6c-0.1,1.5-0.2,3-0.4,4.3H625
			c0.6,18.1,5,32,13.4,41.7c8.4,9.7,21.7,14.6,40,14.6c10.1,0,18.1-1,24-2.9c5.9-1.9,10.2-3.5,12.9-4.9l3.4,16
			c-2.7,1.5-7.7,3.3-15,5.4c-7.3,2.1-16,3.1-25.9,3.1c-13,0-24-1.9-33.1-5.7c-9.1-3.8-16.7-9.1-22.6-16c-5.9-6.9-10.2-15-12.9-24.4
			C606.6,263.2,605.3,252.8,605.3,241.6z M710.1,229.9c-0.4-15.4-4-27.4-10.9-36S682.7,181,670.2,181c-6.7,0-12.6,1.3-17.9,4
			c-5.2,2.7-9.8,6.2-13.7,10.7c-3.9,4.5-7,9.7-9.1,15.6c-2.2,5.9-3.5,12.1-3.9,18.6H710.1z"/>
		<path class="st3" d="M789.6,302.4c10.7,0,19.5-1.8,26.4-5.3c6.9-3.5,10.4-9.5,10.4-17.9c0-4-0.6-7.4-1.9-10.3
			c-1.2-2.9-3.3-5.4-6.1-7.7c-2.9-2.3-6.6-4.5-11.3-6.6c-4.7-2.1-10.4-4.6-17.3-7.4c-5.5-2.3-10.8-4.6-15.7-7
			c-5-2.4-9.3-5.1-13.1-8.3c-3.8-3.1-6.9-6.9-9.1-11.3c-2.3-4.4-3.4-9.7-3.4-16c0-12,4.5-21.7,13.6-29.1c9-7.4,21.5-11.1,37.3-11.1
			c10.1,0,18.4,0.9,25,2.6s11.2,3.2,13.9,4.6l-4.3,16.6c-2.3-1.1-6.1-2.7-11.6-4.6c-5.4-1.9-13.4-2.9-23.9-2.9
			c-4.2,0-8.1,0.4-11.9,1.3c-3.7,0.9-7,2.2-9.9,4c-2.9,1.8-5.1,4.1-6.9,6.9c-1.7,2.8-2.6,6.2-2.6,10.2c0,4,0.8,7.4,2.3,10.3
			c1.5,2.9,3.8,5.4,6.7,7.6c3,2.2,6.6,4.2,10.9,6.1c4.3,1.9,9.2,4,14.7,6.3c5.7,2.3,11.2,4.6,16.4,7c5.2,2.4,9.9,5.2,13.9,8.6
			c4,3.3,7.2,7.3,9.7,12c2.5,4.7,3.7,10.5,3.7,17.6c0,13.3-5,23.4-15,30.3c-10,6.9-23.7,10.3-41,10.3c-13,0-22.9-1.1-29.7-3.3
			c-6.9-2.2-11.4-3.9-13.7-5l4.9-16.9c0.6,0.4,1.8,1,3.7,1.9c1.9,0.9,4.5,1.8,7.7,2.9c3.2,1,7.1,2,11.6,2.7
			C778.5,302,783.6,302.4,789.6,302.4z"/>
	</g>
	<linearGradient id="SVGID_1_" gradientUnits="userSpaceOnUse" x1="67.0733" y1="184.5672" x2="385.2387" y2="184.5672">
		<stop  offset="0.5376" style="stop-color:#0D72B9"/>
		<stop  offset="0.6075" style="stop-color:#44336C"/>
		<stop  offset="0.7043" style="stop-color:#B11F24"/>
	</linearGradient>
	<path class="st4" d="M372.9,164.4c-3.3,0-6.1,2.2-6.9,5.4L340.7,291c-1.2,5-4.3,14.4-7.8,14.5c-4-0.1-7.4-9.9-8.4-13.5
		c0,0-34.1-155.6-34.2-155.9c-3.4-19.6-20.2-23.9-27.1-23.7c-6,0.1-22.1,2.1-27.6,26.5l-5.5,24.5l-26,128.8
		c-2.3,10.5-5.2,14.2-7.9,14c-3,0-5.8-5.9-7.7-13.5L138.5,72.9c-3.8-17.4-16.9-24-27.5-23.7c-13.5,0-24.1,10.6-26.7,24.6l-16.9,76.5
		c-0.9,3.9,1.6,7.7,5.6,8.5l4.8,1c3.8,0.8,7.6-1.7,8.4-5.5l17.3-76.2c1-3.7,3-15.9,8-16.2c4.5-0.3,7.3,9.1,8.9,15.4
		c0,0,49.3,217.9,50.8,222.9c3.9,13.1,15.5,19.7,25.2,19.7c10.7,0,23.4-6.2,26.9-21.5c1-4.7,32.4-156.6,32.4-156.9
		c1.6-7.1,3.9-15.2,7.6-15.2c3.6,0,6.7,6.3,9,13.7c0.2,0.5,0.3,1,0.4,1.5c2.8,12.1,33.5,156.2,33.5,156.2s0.6,1.9,0.7,2.3
		c3.8,13.3,16,19.7,26,19.7c13.6-0.2,23.3-9.4,26.7-24.1L385,173.3c1.2-4.5-2.2-8.9-6.9-8.9H372.9z"/>
	<rect x="156.3" y="337.6" class="st2" width="701.4" height="2.6"/>
	<path class="st5" d="M135.3,122.8c0.5-0.8,1.6-2.1,3-3.8C137.2,119.6,136.2,121,135.3,122.8z"/>
</g>
</svg>
